<svg width="57" height="57" xmlns="http://www.w3.org/2000/svg" xmlns:xlink="http://www.w3.org/1999/xlink" xml:space="preserve" overflow="hidden"><g transform="translate(-492 -364)"><path d="M527.909 408.763C526.699 408.428 525.527 407.97 524.412 407.394L524.404 407.388C524.401 407.388 524.397 407.388 524.394 407.384 522.898 406.531 521.723 405.211 521.05 403.626L521.05 398.823C521.049 398.154 521.012 397.485 520.941 396.82 521.459 396.326 522.069 395.939 522.737 395.682 524.429 398.333 527.902 399.192 530.634 397.635L530.634 397.635C535.167 395.137 535.73 390.51 535.73 385.322 535.73 385.322 531.137 386.592 528.022 386.592 527.916 386.592 527.811 386.592 527.709 386.588 524.445 386.59 521.801 389.236 521.802 392.5 521.802 392.511 521.802 392.636 521.802 392.808 521.805 393.435 521.937 394.054 522.192 394.627 521.689 394.848 521.207 395.114 520.752 395.421 520.625 394.649 520.471 393.894 520.312 393.122 519.724 390.272 519.116 387.329 519.856 382.645 520 381.761 520.206 380.887 520.471 380.031 521.222 379.556 522.084 379.283 522.972 379.24 522.966 379.318 522.95 379.395 522.95 379.474L522.95 379.712C523.082 381.073 524.135 382.165 525.491 382.344L525.491 382.344C525.727 382.379 525.965 382.397 526.204 382.398 528.362 382.398 529.825 380.854 531.246 378.989 529.985 378.487 528.786 377.84 527.673 377.062 527.165 376.674 526.543 376.463 525.903 376.463 525.071 376.463 524.278 376.813 523.717 377.426 523.555 377.619 523.417 377.83 523.306 378.055 522.527 378.035 521.75 378.166 521.021 378.441 521.863 376.299 522.936 374.256 524.222 372.347 524.406 372.427 524.596 372.494 524.79 372.546 525.022 372.611 525.261 372.646 525.502 372.653 525.579 372.653 525.656 372.647 525.732 372.635 527.146 372.394 528.203 371.205 528.278 369.774 528.333 368.417 528.546 367.071 528.911 365.763 526.316 365.763 524.004 366.044 522.754 368.311L522.754 368.311C522.5 368.756 522.366 369.26 522.367 369.774 522.316 370.528 522.609 371.264 523.163 371.778 522.411 372.904 521.728 374.074 521.117 375.281 520.804 374.924 520.464 374.592 520.099 374.287 520.194 374.064 520.261 373.83 520.299 373.591 520.314 373.493 520.322 373.393 520.324 373.294 520.324 371.662 519.001 370.339 517.369 370.339 517.318 370.339 517.265 370.339 517.212 370.339 515.908 370.264 514.617 370.051 513.358 369.703 513.358 372.298 513.64 374.611 515.906 375.86L515.906 375.86C516.351 376.114 516.856 376.248 517.369 376.247 518.168 376.251 518.927 375.899 519.44 375.286 519.853 375.635 520.225 376.031 520.549 376.465 520.102 377.449 519.716 378.461 519.393 379.493 519.393 379.503 519.386 379.512 519.384 379.522 519.079 380.484 518.844 381.467 518.681 382.463 518.27 384.887 518.214 387.359 518.516 389.8 517.738 389.619 516.972 389.393 516.22 389.123 516.229 389.099 516.241 389.077 516.25 389.053L516.438 388.545C516.625 388.056 516.726 387.538 516.734 387.015 516.737 383.751 514.093 381.103 510.829 381.1 510.828 381.1 510.827 381.1 510.825 381.1 510.723 381.104 510.618 381.105 510.511 381.105 507.397 381.105 502.804 379.834 502.804 379.834 502.804 385.023 503.367 389.649 507.9 392.147L507.9 392.147C509.453 393.033 511.324 393.167 512.988 392.512 514.114 392.052 515.061 391.24 515.688 390.197 516.668 390.56 517.675 390.844 518.7 391.048 518.835 391.845 518.992 392.606 519.147 393.36 519.579 395.15 519.818 396.981 519.86 398.822L519.86 401.257C518.71 405.685 516.866 406.432 514.318 407.46 513.19 407.884 512.101 408.406 511.062 409.019L511.053 409.019C511.048 409.019 511.046 409.027 511.04 409.03 509.352 410.088 507.879 411.454 506.697 413.057 506.498 413.318 506.548 413.691 506.809 413.89 507.069 414.089 507.442 414.039 507.641 413.778 508.6 412.483 509.759 411.349 511.077 410.421 511.437 411.577 511.43 412.816 511.056 413.968 510.966 414.283 511.148 414.612 511.463 414.703 511.464 414.703 511.464 414.703 511.464 414.703 511.517 414.718 511.572 414.726 511.628 414.726 511.893 414.726 512.125 414.55 512.198 414.295 512.673 412.822 512.64 411.232 512.104 409.779 512.962 409.314 513.85 408.906 514.763 408.558 514.954 408.481 515.143 408.404 515.33 408.326 515.216 409.146 515.357 409.981 515.734 410.719 515.875 411.015 516.229 411.14 516.525 410.999 516.822 410.858 516.947 410.504 516.806 410.208 516.087 408.699 516.762 407.757 516.799 407.707 516.815 407.681 516.828 407.654 516.84 407.626 518.132 406.953 519.187 405.899 519.86 404.606L519.86 411.85C518.074 412.779 516.007 415.127 515.914 415.234 515.681 415.465 515.681 415.841 515.912 416.074 516.143 416.306 516.519 416.307 516.752 416.076 516.771 416.057 516.788 416.037 516.805 416.015 517.717 414.981 518.741 414.05 519.857 413.24L519.857 418.303C519.857 418.631 520.123 418.897 520.451 418.897 520.779 418.897 521.044 418.631 521.044 418.303L521.044 414.332C522.036 414.894 522.97 415.55 523.835 416.292 524.089 416.499 524.463 416.461 524.67 416.207 524.873 415.959 524.842 415.595 524.601 415.384 524.193 415.039 522.331 413.505 521.047 413.041L521.047 405.969C521.757 406.936 522.66 407.745 523.7 408.344L523.7 408.344C523.712 408.352 524.87 409.225 524.412 411.458 524.354 411.781 524.569 412.089 524.892 412.147 525.204 412.203 525.505 412.004 525.575 411.695 525.764 410.875 525.752 410.022 525.54 409.208 526.204 409.462 526.879 409.677 527.548 409.888 528.142 410.075 528.725 410.26 529.298 410.469 528.964 411.133 528.539 412.742 530.296 415.184 530.407 415.339 530.587 415.431 530.778 415.431 531.106 415.431 531.372 415.164 531.371 414.836 531.371 414.712 531.332 414.591 531.259 414.491 529.662 412.269 530.271 411.116 530.402 410.917 531.777 411.515 532.986 412.438 533.925 413.605 534.141 413.853 534.516 413.878 534.763 413.663 534.995 413.461 535.034 413.114 534.853 412.866 532.781 410.301 530.304 409.519 527.909 408.763ZM522.99 392.5C522.992 389.899 525.095 387.789 527.696 387.777 527.804 387.78 527.914 387.781 528.026 387.781 530.218 387.695 532.396 387.383 534.524 386.85 534.385 391.414 533.519 394.516 530.393 396.41L530.049 396.606C527.934 397.815 525.247 397.207 523.858 395.207L524.302 395.029C525.786 394.507 527.194 393.791 528.491 392.9 528.75 392.699 528.798 392.326 528.597 392.067 528.397 391.807 528.023 391.76 527.764 391.96 526.552 392.782 525.239 393.443 523.857 393.928 523.661 394.008 523.469 394.085 523.279 394.165 523.09 393.741 522.991 393.281 522.989 392.816ZM524.138 379.474C524.138 379.424 524.147 379.374 524.152 379.323 524.478 379.377 524.8 379.45 525.118 379.543 525.429 379.644 525.764 379.473 525.866 379.161 525.967 378.85 525.796 378.515 525.485 378.413 525.474 378.41 525.463 378.407 525.452 378.404 525.169 378.32 524.894 378.252 524.621 378.198 524.956 377.849 525.419 377.651 525.903 377.65 526.279 377.65 526.644 377.772 526.944 377.998 527.693 378.56 528.498 379.042 529.347 379.438 528.344 380.555 527.388 381.21 526.204 381.21 526.079 381.209 525.955 381.203 525.831 381.19L525.646 381.165C524.855 381.061 524.234 380.435 524.137 379.643ZM523.782 368.9 523.871 368.75C524.583 367.578 525.738 367.14 527.4 367.006 527.2 367.921 527.095 368.854 527.087 369.791 526.998 370.629 526.371 371.309 525.543 371.466 525.529 371.467 525.516 371.467 525.502 371.466 525.361 371.46 525.221 371.436 525.086 371.397 525.033 371.383 524.977 371.361 524.923 371.343 525.197 370.97 525.365 370.76 525.373 370.749 525.581 370.495 525.543 370.121 525.289 369.914 525.034 369.707 524.66 369.745 524.453 369.999 524.414 370.047 524.187 370.331 523.852 370.791 523.638 370.497 523.533 370.137 523.555 369.774 523.553 369.467 523.632 369.166 523.783 368.9ZM519.121 373.42C519.115 373.467 519.101 373.513 519.09 373.559 518.845 373.405 518.587 373.271 518.319 373.16 518.013 373.042 517.669 373.194 517.55 373.499 517.433 373.802 517.581 374.143 517.882 374.265 518.088 374.35 518.287 374.453 518.476 374.572 518.23 374.825 517.908 374.992 517.559 375.047 517.495 375.054 517.432 375.057 517.369 375.057 517.062 375.059 516.76 374.979 516.495 374.826L516.344 374.74C515.173 374.027 514.735 372.873 514.601 371.212 515.46 371.397 516.334 371.502 517.213 371.526 517.272 371.526 517.329 371.526 517.385 371.526 518.352 371.537 519.132 372.324 519.134 373.292 519.133 373.335 519.129 373.378 519.123 373.42ZM515.321 388.131 515.134 388.639C515.127 388.657 515.118 388.674 515.111 388.692 513.617 388.073 512.193 387.3 510.86 386.384 510.59 386.198 510.221 386.266 510.035 386.536 509.848 386.806 509.917 387.176 510.187 387.362 511.559 388.306 513.024 389.107 514.559 389.754 514.071 390.494 513.372 391.07 512.552 391.408 511.223 391.931 509.729 391.823 508.489 391.116L508.159 390.928C505.022 389.038 504.153 385.934 504.014 381.363 506.142 381.895 508.319 382.207 510.511 382.293 510.623 382.293 510.733 382.293 510.842 382.289 513.442 382.301 515.544 384.409 515.548 387.009 515.54 387.393 515.464 387.773 515.324 388.131Z"/></g></svg>