<svg width="57" height="57" xmlns="http://www.w3.org/2000/svg" xmlns:xlink="http://www.w3.org/1999/xlink" xml:space="preserve" overflow="hidden"><g transform="translate(-293 -323)"><path d="M326.25 354.68 326.25 346.367 310.152 354.715 308.396 330.719 302.542 330.719 300.719 355.656 300.719 372.281 342.281 372.281 342.281 346.367ZM307.292 331.906 307.509 334.875 303.429 334.875 303.646 331.906ZM303.341 336.062 307.596 336.062 308.986 355.062 301.951 355.062ZM309.803 356.232 325.062 348.32 325.062 356.633 341.094 348.32 341.094 371.094 301.906 371.094 301.906 356.25 309.073 356.25Z"/><path d="M304.875 367.531 314.375 367.531 314.375 361.594 304.875 361.594ZM313.188 366.344 310.219 366.344 310.219 362.781 313.188 362.781ZM306.062 362.781 309.031 362.781 309.031 366.344 306.062 366.344Z"/><path d="M316.75 367.531 326.25 367.531 326.25 361.594 316.75 361.594ZM325.062 366.344 322.094 366.344 322.094 362.781 325.062 362.781ZM317.938 362.781 320.906 362.781 320.906 366.344 317.938 366.344Z"/><path d="M338.125 361.594 328.625 361.594 328.625 367.531 338.125 367.531ZM329.812 362.781 332.781 362.781 332.781 366.344 329.812 366.344ZM336.938 366.344 333.969 366.344 333.969 362.781 336.938 362.781Z"/></g></svg>