<svg width="57" height="57" xmlns="http://www.w3.org/2000/svg" xmlns:xlink="http://www.w3.org/1999/xlink" xml:space="preserve" overflow="hidden"><g transform="translate(-368 -332)"><path d="M423.278 355.572 416.569 344.409 415.975 343.4 414.966 344.053 410.453 346.844C409.919 347.141 409.503 347.675 409.325 348.269 409.206 348.684 409.206 349.159 409.384 349.575 408.138 349.991 406.891 350.228 405.584 350.228 403.803 350.169 402.022 349.872 400.3 349.337 399.469 349.1 398.578 348.922 397.688 348.744L397.569 348.744 397.569 348.744C397.509 348.744 397.45 348.744 397.45 348.744L397.331 348.744 397.212 348.744C397.094 348.744 397.034 348.744 396.916 348.744L396.916 348.744C395.906 348.744 394.897 349.159 394.244 349.931L393.769 350.466C392.997 350.169 392.166 349.991 391.334 349.991 391.156 349.991 391.038 349.991 390.859 349.991 390.503 349.991 390.206 350.05 389.85 350.05 389.078 350.109 388.306 350.169 387.534 350.169 386.228 350.228 384.922 349.931 383.734 349.397 383.794 349.041 383.794 348.684 383.734 348.269 383.556 347.675 383.141 347.141 382.606 346.844L378.153 344.053 377.144 343.4 376.55 344.409 369.722 355.572 369.128 356.581 370.138 357.175 374.709 359.966C375.541 360.5 376.55 360.441 377.322 359.847L381.181 364.359 381.241 364.478 381.359 364.538 381.359 364.538 380.528 365.487C379.459 366.734 379.578 368.575 380.766 369.644L380.766 369.644 380.766 369.644C381.3 370.119 381.953 370.356 382.666 370.356 382.784 370.356 382.903 370.356 383.022 370.356 383.438 370.297 383.794 370.178 384.15 369.941 384.209 370.653 384.566 371.366 385.1 371.841L385.1 371.841 385.1 371.841C385.634 372.316 386.288 372.553 387 372.553 387.059 372.553 387.178 372.553 387.237 372.553 387.534 372.553 387.831 372.494 388.128 372.375 388.188 373.028 388.484 373.681 389.019 374.097L389.019 374.097 389.019 374.097C389.494 374.513 390.087 374.75 390.681 374.75 390.8 374.75 390.859 374.75 390.978 374.75 391.394 374.75 391.75 374.572 392.106 374.394 392.225 374.809 392.462 375.225 392.819 375.522 393.294 375.938 393.888 376.175 394.541 376.116L394.659 376.116 394.778 376.116C395.134 376.056 395.491 375.878 395.788 375.7L395.847 375.759 396.678 376.413 396.737 376.472 396.797 376.531C397.331 376.888 397.984 377.066 398.578 377.066 398.697 377.066 398.816 377.066 398.934 377.066 400.419 376.947 401.606 375.878 402.022 374.453 403.328 374.216 404.397 373.206 404.753 371.9 406.119 371.603 407.188 370.594 407.484 369.288 407.544 369.288 407.663 369.288 407.722 369.288 409.622 369.109 411.047 367.447 410.928 365.547 410.928 365.428 410.928 365.25 410.928 365.131L411.403 364.538 415.5 359.788C416.272 360.441 417.341 360.441 418.231 359.906L422.803 357.116 423.812 356.522 423.278 355.572ZM375.303 358.956 370.731 356.166 377.5 345.003 382.013 347.794C382.487 348.031 382.725 348.625 382.547 349.1L382.191 349.694 377.025 358.244 376.669 358.778C376.491 358.956 376.194 359.075 375.897 359.075 375.719 359.134 375.481 359.075 375.303 358.956ZM382.903 369.169C382.844 369.169 382.784 369.169 382.725 369.169 381.775 369.169 381.003 368.337 381.003 367.388 381.003 366.972 381.181 366.556 381.419 366.259L384.566 362.697C384.922 362.341 385.397 362.103 385.931 362.103 386.347 362.103 386.763 362.281 387.059 362.519 387.772 363.172 387.891 364.3 387.237 365.013L384.091 368.575C383.794 368.931 383.378 369.109 382.903 369.169ZM387.297 371.425C387.237 371.425 387.178 371.425 387.119 371.425 386.169 371.425 385.397 370.594 385.397 369.644 385.397 369.228 385.575 368.812 385.812 368.516L388.544 365.369C388.9 365.013 389.375 364.775 389.909 364.775 390.325 364.775 390.741 364.953 391.038 365.191 391.75 365.844 391.869 366.972 391.216 367.684L388.484 370.831C388.188 371.188 387.772 371.425 387.297 371.425L387.297 371.425ZM391.038 373.622C390.978 373.622 390.919 373.622 390.859 373.622 390.503 373.622 390.206 373.503 389.909 373.266 389.316 372.731 389.256 371.781 389.791 371.188L392.522 368.041C392.819 367.744 393.234 367.566 393.65 367.566 394.006 367.566 394.362 367.684 394.6 367.922 395.194 368.456 395.253 369.406 394.719 370L391.987 373.147C391.75 373.444 391.394 373.622 391.038 373.622L391.038 373.622ZM394.659 375.047C394.362 375.047 394.006 374.987 393.769 374.75 393.294 374.334 393.234 373.562 393.65 373.087L395.966 370.416C396.203 370.178 396.5 370 396.856 370 397.153 370 397.391 370.119 397.628 370.297 398.103 370.712 398.163 371.484 397.747 371.959L395.431 374.631C395.253 374.869 394.956 374.987 394.659 375.047L394.659 375.047ZM407.722 368.1C407.663 368.1 407.544 368.1 407.484 368.1 407.128 368.1 406.772 367.981 406.475 367.862 406.475 367.981 406.534 368.1 406.534 368.219 406.653 369.525 405.703 370.653 404.397 370.772 404.397 370.772 404.397 370.772 404.397 370.772 404.219 370.772 403.981 370.772 403.803 370.712L403.803 370.772C403.922 372.078 402.972 373.206 401.666 373.325 401.666 373.325 401.666 373.325 401.666 373.325 401.487 373.325 401.25 373.325 401.072 373.266L401.072 373.325C401.191 374.631 400.241 375.759 398.934 375.878 398.934 375.878 398.934 375.878 398.934 375.878 398.875 375.878 398.816 375.878 398.756 375.878 398.341 375.878 397.925 375.759 397.509 375.522L396.737 374.928 398.638 372.731C399.469 371.722 399.35 370.237 398.4 369.406 397.984 369.05 397.45 368.812 396.856 368.812 396.678 368.812 396.441 368.812 396.263 368.872 396.203 368.159 395.906 367.506 395.372 367.031 394.897 366.616 394.244 366.378 393.591 366.378L393.591 366.378C393.294 366.378 393.056 366.438 392.759 366.497 392.759 365.666 392.403 364.894 391.75 364.3 391.216 363.825 390.562 363.528 389.85 363.587L389.85 363.587C389.494 363.587 389.138 363.647 388.781 363.766 388.722 362.934 388.366 362.163 387.772 361.628 387.237 361.153 386.584 360.856 385.872 360.916L385.872 360.916C385.041 360.916 384.209 361.272 383.616 361.925L382.072 363.706 382.013 363.647 377.975 358.956 383.141 350.406C384.447 351.059 385.931 351.356 387.416 351.297 388.603 351.297 389.791 351.178 390.859 351.059 390.978 351.059 391.097 351.059 391.216 351.059 391.75 351.059 392.284 351.119 392.759 351.297L389.494 355.156C388.841 355.869 388.544 356.819 388.603 357.769 388.663 358.719 389.138 359.55 389.85 360.203L389.85 360.203 389.85 360.203C390.503 360.737 391.334 361.034 392.166 361.034 392.284 361.034 392.344 361.034 392.462 361.034 393.413 360.975 394.303 360.5 394.897 359.788L398.934 355.156 398.934 355.156 399.587 355.75 409.147 363.944C409.562 364.3 409.8 364.894 409.8 365.428 409.8 365.487 409.8 365.666 409.8 365.666 409.919 366.913 408.969 367.981 407.722 368.1 407.722 368.1 407.722 368.1 407.722 368.1ZM410.631 363.766C410.453 363.469 410.216 363.231 409.978 362.994L398.875 353.434 394.006 359.016C393.591 359.491 393.056 359.788 392.403 359.847 392.344 359.847 392.284 359.847 392.225 359.847 391.631 359.847 391.097 359.609 390.622 359.253 389.612 358.422 389.494 356.997 390.325 355.987 390.325 355.987 390.384 355.928 390.384 355.928L395.075 350.584C395.55 350.05 396.203 349.812 396.856 349.812 396.916 349.812 396.975 349.812 397.094 349.812 397.212 349.812 397.272 349.872 397.391 349.872 400.122 350.406 402.616 351.356 405.525 351.356 407.009 351.356 408.494 351.119 409.859 350.584L413.303 356.166 414.906 358.837 410.631 363.766ZM417.697 358.956C417.519 359.075 417.281 359.134 417.103 359.134 416.806 359.134 416.509 359.016 416.272 358.778L415.916 358.184 414.312 355.572 410.572 349.397C410.216 348.862 410.394 348.209 410.869 347.853 410.928 347.853 410.928 347.794 410.987 347.794L415.559 345.003 422.269 356.166 417.697 358.956Z"/></g></svg>