<svg xmlns="http://www.w3.org/2000/svg" xmlns:xlink="http://www.w3.org/1999/xlink" version="1.1" id="Calque_1" x="0px" y="0px" style="enable-background:new 0 0 1366 768;" xml:space="preserve" viewBox="391.9 311.3 583.1 145.6">
<style type="text/css">
	.st0{fill:#FFFFFF;}
</style>
<g>
	<path class="st0" d="M779.7,313.7c0,0,8.9-0.4,10.9-1.9v98.4h-10.9V313.7z"/>
	<path class="st0" d="M464.2,352.3c0,0,8.9-0.4,10.8-1.9v59.8h-10.8V352.3z"/>
	<path class="st0" d="M488.7,349.5c6.5-1.3,13.7,3.8,13.7,11c0,4.3-3.3,6-5.8,6c-3.7,0-6.5-2.3-6.5-6.2c0-4.7,5.3-4.6,5.3-6.9   C495.4,351,493,349.4,488.7,349.5"/>
	<path class="st0" d="M594.3,352.3c0,0,8.9-0.4,10.9-1.9v106.5h-10.9V352.3z"/>
	<path class="st0" d="M550.3,351.8c16.3,3.5,24.2,17.3,24.2,29.7c0,12.3-8.8,26.3-24.4,28.8c7.6-4.8,11.9-13.4,11.9-30.7   C562,363.9,559.2,356.7,550.3,351.8"/>
	<path class="st0" d="M742.3,352.3c0,0,8.9-0.4,10.8-1.9v59.8h-10.8V352.3z"/>
	<path class="st0" d="M753.7,328c0,3.3-2.7,5.9-6,5.9s-6-2.7-6-5.9c0-3.3,2.7-6,6-6S753.7,324.7,753.7,328"/>
	<path class="st0" d="M668.4,313.7c0,0,8.9-0.4,10.8-1.9v98.4h-10.8V313.7z"/>
	<path class="st0" d="M697.1,352.7c0,0,10.7,1.7,10.7,12.7v44.8h11v-41.4C718.8,358.9,709.9,351.1,697.1,352.7"/>
	<path class="st0" d="M416.1,311.6c0,0,33.1-1.3,33.1,26.4c0,25.7-24.4,27.2-33.5,27.2c7.4-2.1,21.5-4.6,21.5-26.8   C437.2,313.6,416.1,311.6,416.1,311.6"/>
</g>
<rect x="391.9" y="311.3" class="st0" width="12.3" height="99.4"/>
<g>
	<g>
		<path class="st0" d="M539.1,352.8c-16.3,3.5-24.3,17.3-24.3,29.7c0,12.3,8.8,26.3,24.4,28.8c-7.6-4.8-11.9-13.4-11.9-30.7    C527.3,364.9,530.2,357.7,539.1,352.8"/>
		<path class="st0" d="M624.7,352.8c16.3,3.5,24.3,17.3,24.3,29.7c0,12.3-8.8,26.3-24.4,28.8c7.6-4.8,11.9-13.4,11.9-30.7    C636.5,364.9,633.6,357.7,624.7,352.8"/>
		<path class="st0" d="M734,443.1c0,4.4-0.9,6.3-2.9,6.3c-2.2,0-3.2-2-3.2-6.3s1-6.3,3.2-6.3C733.1,436.8,734,438.6,734,443.1     M731.8,434.3c-1.6,0-3.1,0.8-3.8,2v-7.1h-2.8v22.2h2.7v-1.7c0.5,1.1,1.9,2.1,3.5,2.1c3.4,0,5.5-3.3,5.5-8.8    C736.9,437.3,735.2,434.3,731.8,434.3"/>
	</g>
	<rect x="741.5" y="429.3" class="st0" width="2.8" height="3.2"/>
	<rect x="741.5" y="434.7" class="st0" width="2.8" height="16.7"/>
	<g>
		<path class="st0" d="M630.3,436.8c2,0,2.9,1.8,2.9,6c0,4.7-0.8,6.7-2.9,6.7c-2.2,0-3.2-2.1-3.2-6.3    C627.1,439.2,627.7,436.8,630.3,436.8 M630.7,434.3c-1.6,0-3,1-3.5,2.1v-1.7h-2.7v22.1h2.8v-7c0.7,1.2,2,2,3.4,2    c4.1,0,5.5-4.7,5.5-9.1C636.2,437.2,634.3,434.3,630.7,434.3"/>
		<path class="st0" d="M645.7,436.6c2.8,0,3.2,3.3,3.2,6.5c0,4.5-1,6.5-3.2,6.5c-1.4,0-3.1-0.7-3.1-6.5    C642.7,438.6,643.6,436.6,645.7,436.6 M645.8,434.3c-4.1,0-6.1,2.9-6.1,8.8s2,8.8,6.1,8.8s6.1-2.9,6.1-8.8    C651.9,437.2,649.9,434.3,645.8,434.3"/>
		<path class="st0" d="M702.9,441.3v-0.5c0-0.4,0.1-4.2,2.9-4.2c2.5,0,2.7,2.7,2.7,3.9v0.8L702.9,441.3L702.9,441.3z M705.9,434.3    c-2.3,0-4,1-5,3c-0.7,1.4-1,3.4-1,6c0,5.9,1.9,8.6,5.8,8.6c4.6,0,5.7-4.3,5.7-6v-0.1h-2.8v0.1c0,1.1-0.3,3.7-2.7,3.7    c-3,0-3.1-3.6-3.1-6.1h8.7v-1.2C711.5,438.4,710.9,434.3,705.9,434.3"/>
		<path class="st0" d="M664.3,446.2c0,2.5-2.1,3.2-3.1,3.2c-2,0-2.3-1.6-2.3-3.2v-11.5h-2.8v11.8c0,1.9,0,5.3,4.5,5.3    c1.6,0,3.2-0.9,3.9-2.1v1.7h2.7v-16.7h-2.8v11.5H664.3z"/>
		<path class="st0" d="M754.8,436.6c2.5,0,2.7,2.7,2.7,3.9v0.8h-5.6v-0.5C751.9,440.3,752,436.6,754.8,436.6 M754.9,434.3    c-2.3,0-4,1-5,3c-0.7,1.4-1,3.4-1,6c0,5.9,1.9,8.6,5.8,8.6c4.6,0,5.7-4.3,5.7-6v-0.1h-2.8v0.1c0,1.1-0.3,3.7-2.7,3.7    c-3,0-3.1-3.6-3.1-6.1h8.7v-1.2C760.5,438.4,759.8,434.3,754.9,434.3"/>
		<path class="st0" d="M678.5,434.3c-1.9,0-2.9,1.3-3.5,2.6v-2.2h-2.8v16.7h2.8v-10.6c0-2.6,1.9-3.8,3.3-3.8c0.6,0,1,0.1,1.2,0.1    c0.1,0,0.1,0,0.2,0h0.1v-2.7h-0.1C679.4,434.4,679,434.3,678.5,434.3"/>
	</g>
	<rect x="692.5" y="429.3" class="st0" width="2.8" height="22.2"/>
	<g>
		<path class="st0" d="M807.4,443.1c0-4.5,0.9-6.5,3.1-6.5c2.8,0,3.2,3.3,3.2,6.5c0,4.5-1,6.5-3.2,6.5    C809,449.6,807.4,448.9,807.4,443.1 M810.5,434.3c-4.1,0-6.1,2.9-6.1,8.8s2,8.8,6.1,8.8s6.1-2.9,6.1-8.8    C816.5,437.2,814.6,434.3,810.5,434.3"/>
		<path class="st0" d="M771.6,434.3c-1.6,0-3.2,0.9-3.9,2.1v-1.7H765v16.7h2.8V440c0-2.3,1.9-3.2,3.1-3.2c2,0,2.3,1.5,2.3,3.2v11.5    h2.8v-11.8C776,437.8,776,434.3,771.6,434.3"/>
		<path class="st0" d="M877.1,446.2c0,2.5-2.1,3.2-3.1,3.2c-2,0-2.3-1.6-2.3-3.2v-11.5h-2.8v11.8c0,1.9,0,5.3,4.5,5.3    c1.6,0,3.2-0.9,3.9-2.1v1.7h2.7v-16.7h-2.8v11.5H877.1z"/>
		<path class="st0" d="M891.6,434.3c-1.6,0-3.2,0.9-3.9,2.1v-1.7H885v16.7h2.8V440c0-2.5,2.1-3.2,3.1-3.2c2,0,2.3,1.5,2.3,3.2v11.5    h2.8v-11.8C896.1,437.8,896.1,434.3,891.6,434.3"/>
		<path class="st0" d="M859.2,434.3c-1.5,0-3,0.9-3.9,2.4c-0.6-1.7-1.7-2.4-3.6-2.4c-1.6,0-3.2,0.9-3.9,2.1v-1.7h-2.7v16.7h2.8V440    c0-2.5,1.9-3.2,3-3.2c1.9,0,2.1,1.6,2.1,3.2v11.5h2.8V440c0-2.5,1.9-3.2,3-3.2c1.8,0,2.1,1.6,2.1,3.2v11.5h2.8v-11.8    C863.6,437.8,863.6,434.3,859.2,434.3"/>
		<path class="st0" d="M795.6,434.3c-5.4,0-6,5.1-6,9c0,5.9,1.9,8.6,5.8,8.6c4.1,0,5.5-3.4,5.5-6.3v-0.1h-2.8v0.1c0,1.5-0.3,4-2.6,4    c-3,0-3-4.3-3-6.4c0-5.9,1.6-6.7,3.1-6.7c1.8,0,2.5,1.7,2.5,3.3v0.1h2.8v-0.1C800.9,438.5,800.6,434.3,795.6,434.3"/>
		<path class="st0" d="M835.1,434.3c-1.5,0-3,0.9-3.9,2.4c-0.6-1.7-1.7-2.4-3.6-2.4c-1.6,0-3.2,0.9-3.9,2.1v-1.7H821v16.7h2.8V440    c0-2.5,1.9-3.2,3-3.2c1.8,0,2.1,1.6,2.1,3.2v11.5h2.8V440c0-2.5,1.9-3.2,3-3.2c1.9,0,2.1,1.6,2.1,3.2v11.5h2.8v-11.8    C839.6,437.8,839.6,434.3,835.1,434.3"/>
		<path class="st0" d="M969.3,395.3c2.5,0,2.7,2.7,2.7,3.9v0.8h-5.6v-0.5C966.4,399,966.4,395.3,969.3,395.3 M975,401.1    c0-4-0.7-8.1-5.6-8.1c-2.3,0-4,1-5,3c-0.7,1.4-1,3.4-1,6c0,5.9,1.9,8.6,5.8,8.6c4.6,0,5.7-4.3,5.7-6v-0.1H972v0.1    c0,1.1-0.3,3.7-2.7,3.7c-3,0-3-3.6-3-6.1h8.7V401.1z"/>
		<path class="st0" d="M959.3,393c-1.9,0-2.9,1.3-3.5,2.6v-2.2H953v16.7h2.8v-10.6c0-2.6,1.9-3.8,3.3-3.8c0.6,0,0.9,0.1,1.2,0.1    c0.1,0,0.1,0,0.2,0h0.1v-2.7h-0.1C960.2,393.1,959.8,393,959.3,393"/>
	</g>
	<polygon class="st0" points="821.8,407.5 812.7,407.5 812.7,399.9 820.9,399.9 820.9,397.2 812.7,397.2 812.7,390.6 821.4,390.6    821.4,387.9 809.8,387.9 809.8,410.2 821.8,410.2  "/>
	<g>
		<path class="st0" d="M945.3,401.8c0,3.9-0.5,6.3-3.2,6.3c-2.1,0-2.9-1.8-2.9-6.3s0.8-6.3,2.9-6.3    C944.2,395.4,945.3,397.5,945.3,401.8 M945.1,395c-0.7-1.2-2.1-2-3.6-2c-3.5,0-5.3,3-5.3,8.8s1.9,8.8,5.5,8.8c1.6,0,3-1,3.5-2.1    v1.7h2.7V388h-2.8L945.1,395L945.1,395z"/>
		<path class="st0" d="M854.5,399.6c0-2.6,1.9-3.8,3.3-3.8c0.6,0,0.9,0.1,1.2,0.1c0.1,0,0.1,0,0.2,0h0.1v-2.7h-0.1    c-0.3-0.1-0.7-0.2-1.2-0.2c-1.9,0-2.9,1.3-3.5,2.6v-2.2h-2.8v16.7h2.8V399.6z"/>
		<path class="st0" d="M828.6,398.7c0-2.3,1.9-3.2,3.1-3.2c2,0,2.3,1.5,2.3,3.2v11.5h2.8v-11.8c0-1.9,0-5.3-4.5-5.3    c-1.6,0-3.2,0.9-3.9,2.1v-1.7h-2.7v16.7h2.8v-11.5H828.6z"/>
		<path class="st0" d="M865.1,400v-0.5c0-0.4,0.1-4.2,2.9-4.2c2.5,0,2.7,2.7,2.7,3.9v0.8L865.1,400L865.1,400z M873.6,404.6v-0.1    h-2.8v0.1c0,1.1-0.3,3.7-2.7,3.7c-3,0-3.1-3.6-3.1-6.1h8.7V401c0-4-0.7-8.1-5.6-8.1c-2.3,0-4,1-5,3c-0.7,1.4-1,3.4-1,6    c0,5.9,1.9,8.6,5.8,8.6C872.6,410.6,873.6,406.3,873.6,404.6"/>
		<path class="st0" d="M927.4,393c-1.6,0-3.2,0.9-3.9,2.1v-1.7h-2.7v16.7h2.8v-11.5c0-2.3,1.9-3.2,3.1-3.2c2,0,2.3,1.5,2.3,3.2v11.5    h2.8v-11.8C931.8,396.5,931.8,393,927.4,393"/>
		<path class="st0" d="M884,395.4c2,0,2.9,1.8,2.9,6c0,4.7-0.8,6.7-2.9,6.7c-2.2,0-3.2-2.1-3.2-6.3    C880.8,397.9,881.4,395.4,884,395.4 M889.9,401.5c0-5.6-1.9-8.5-5.5-8.5c-1.6,0-3,1-3.5,2.1v-1.7h-2.7v22.1h2.8v-7    c0.7,1.2,2,2,3.4,2C888.4,410.6,889.9,405.9,889.9,401.5"/>
		<path class="st0" d="M848.2,410.2L848.2,410.2l0.1-2.4h-0.1c-0.1,0-0.1,0-0.2,0c-0.2,0-0.5,0.1-0.9,0.1c-1.2,0-1.6-0.4-1.6-1.7    v-10.5h2.9v-2.3h-2.9v-4.8h-2.8v4.8h-2.4v2.3h2.4V407c0,2.1,0.6,3.4,3.4,3.4C847.2,410.3,847.9,410.2,848.2,410.2"/>
		<path class="st0" d="M907.7,400v-0.5c0-0.4,0.1-4.2,2.9-4.2c2.5,0,2.7,2.7,2.7,3.9v0.8L907.7,400L907.7,400z M910.7,393    c-2.3,0-4,1-5,3c-0.7,1.4-1,3.4-1,6c0,5.9,1.9,8.6,5.8,8.6c4.6,0,5.7-4.3,5.7-6v-0.1h-2.8v0.1c0,1.1-0.3,3.7-2.7,3.7    c-3,0-3.1-3.6-3.1-6.1h8.7V401C916.3,397.1,915.6,393,910.7,393"/>
		<path class="st0" d="M900.6,393c-1.9,0-2.9,1.3-3.5,2.6v-2.2h-2.8v16.7h2.8v-10.6c0-2.6,1.9-3.8,3.3-3.8c0.6,0,0.9,0.1,1.2,0.1    c0.1,0,0.1,0,0.2,0h0.1v-2.7h-0.1C901.5,393.1,901.1,393,900.6,393"/>
	</g>
</g>
</svg>